<svg width="512" height="512" viewBox="0 0 512 512" fill="none" xmlns="http://www.w3.org/2000/svg">
<circle cx="256" cy="256" r="256" fill="white"/>
<path d="M304.123 202.186C308.178 201.602 320.629 196.465 323.956 186.692C326.225 180.026 322.275 176.393 325.239 169.592C328.608 161.867 335.285 162.923 341.354 155.442C348.443 146.714 349.732 132.507 344.155 123.231C339.658 115.751 334.355 117.56 325.901 107.448C318.423 98.5126 320.674 94.8533 315.426 90.2908C305.191 81.4125 291.906 91.1817 273.613 87.2634C248.201 81.8202 248.696 57.5849 228.669 56.0722C210.256 54.686 187.56 73.4965 184.189 91.5445C182.838 98.7736 185.025 102.623 181.323 108.959C175.632 118.695 165.527 116.128 157.383 125.812C151.222 133.139 147.936 145.383 152.931 152.698C158.783 161.26 171.477 156.414 177.377 164.819C183.729 173.871 172.15 183.952 178.228 193.495C183.969 202.508 200.291 203.568 209.74 203.127C221.123 202.595 232.171 199.503 243.428 197.788C264.332 194.606 283.627 205.127 304.123 202.186Z" fill="url(#paint0_linear)"/>
<path d="M236.829 400.808L360.498 371.849L366.683 399.976L253.469 448.892L163.824 428.163L109.746 378.457L236.829 400.808Z" fill="url(#paint1_linear)"/>
<path d="M355.039 253.539C359.177 244.102 330.751 218.254 295.101 208.689C269.221 201.758 247.284 205.631 235.867 207.509C198.845 213.625 175.789 230.953 167.113 238.231C174.217 241.839 193.827 252.85 203.538 273.74C212.926 293.935 206.216 312.488 202.719 323.267C199.67 332.655 195.049 346.927 181.362 357.251C174.134 362.704 166.148 365.471 150.177 371.008C131.343 377.531 119.666 379.34 119.751 382.871C119.858 387.374 138.987 391.045 138.321 393.855C138.271 394.059 138.131 394.079 138.103 394.23C137.846 396.189 159.334 401.006 186.493 404.831C218.251 409.304 234.129 411.538 249.31 409.112C272.973 405.322 268.992 398.511 292.71 394.678C320.298 390.232 332.833 398.311 357.809 389.333C362.017 387.82 378.851 381.743 378.367 375.434C377.77 367.632 350.002 370.296 325.831 350.307C315.184 341.504 310.032 332.273 308.25 328.808C305.944 324.323 296.273 301.168 305.975 275.95C306.394 274.846 306.943 273.788 307.61 272.796C319.361 254.037 351.126 262.448 355.039 253.539Z" fill="url(#paint2_linear)"/>
<path d="M251.066 180.823C251.066 180.823 248.708 198.494 241.739 202.543C234.77 206.591 223.509 211.878 222.27 213.313C221.031 214.748 265.426 219.215 287.43 208.828C280.178 207.411 278.207 206.891 278.207 206.891C276.247 206.369 272.569 205.401 268.889 203.438C266.382 202.102 262.356 199.495 258.643 194.569L258.723 184.784L251.066 180.823Z" fill="url(#paint3_linear)"/>
<path d="M257.877 439.74C282.457 427.404 300.611 414.84 312.932 405.342C337.177 386.656 348.299 372.561 372.842 366.989C377.23 365.994 402.222 360.323 410.286 370.712C419.215 382.216 401.856 406.27 399.746 409.191C368.386 452.641 288.535 450.612 263.487 449.204C261.62 446.044 259.75 442.889 257.877 439.74Z" fill="url(#paint4_linear)"/>
<path style="mix-blend-mode:multiply" opacity="0.3" d="M410.297 370.712C407.941 367.676 404.121 366.037 399.811 365.228C401.244 369.878 401.375 374.241 399.582 378.053C394.682 388.475 380.172 385.264 369.982 397.492C359.965 409.501 366.901 421.077 358.053 426.032C347.911 431.71 335.339 418.447 324.476 424.791C317.089 429.105 319.387 437.29 310.778 441.748C304.831 444.829 299.001 443.379 292.224 442.576C284.456 441.663 273.815 441.467 260.459 444.079L263.497 449.206C288.541 450.614 368.399 452.643 399.757 409.193C401.856 406.268 419.226 382.216 410.297 370.712Z" fill="url(#paint5_linear)"/>
<path d="M276.459 446.231C276.459 446.231 280.965 443.208 287.501 445.269C294.036 447.33 304.413 448.991 304.398 451.984C304.382 454.977 293.999 456.846 286.823 455.617C279.959 454.441 274.56 448.857 276.459 446.231Z" fill="url(#paint6_linear)"/>
<path d="M269.861 441.126L281.888 444.747C281.888 444.747 283.848 447.805 281.204 449.727C278.561 451.65 269.406 447.573 269.406 447.573L269.861 441.126Z" fill="url(#paint7_linear)"/>
<path d="M102.677 389.217C99.1252 408.584 143.752 429.516 153.976 434.311C174.797 444.08 213.973 457.872 272.119 452.602L274.438 439.575C263.407 436.036 252.628 431.844 242.166 427.025C219.624 416.644 211.063 409.232 179.784 391.528C145.171 371.939 135.088 369.425 124.775 371.849C115.948 373.927 104.323 380.226 102.677 389.217Z" fill="url(#paint8_linear)"/>
<path d="M272.241 170.662C272.241 183.42 264.449 195.782 254.836 195.782C245.224 195.782 237.434 183.42 237.434 170.662C237.434 157.904 245.226 156.561 254.836 156.561C264.447 156.561 272.241 157.904 272.241 170.662Z" fill="url(#paint9_linear)"/>
<path d="M75.1177 251.033C75.1177 251.033 79.1313 301.184 119.761 311.124C160.392 321.065 218.616 270.458 218.616 270.458C218.616 270.458 182.18 230.031 167.125 238.247C152.071 246.463 128.501 291.967 86.2155 251.042L75.1177 251.033Z" fill="url(#paint10_linear)"/>
<path d="M74.9722 251.657C74.9722 251.657 89.5631 254.13 93.0257 246.302C96.4883 238.473 91.6733 231.289 88.9729 232.115C86.2725 232.94 87.9407 238.202 87.4006 241.305C86.8605 244.408 79.9092 247.29 78.0494 244.713C76.1896 242.137 76.2266 236.785 82.6009 234.449C88.9751 232.113 87.5487 230.812 83.7071 229.695C79.8656 228.578 76.0676 230.39 73.5371 234.588C71.0066 238.785 62.5591 222.172 61.5203 217.744C60.4815 213.316 43.4494 234.726 74.9722 251.657Z" fill="url(#paint11_linear)"/>
<path d="M436.883 249.376C436.883 249.376 432.87 299.527 392.24 309.467C351.609 319.407 293.387 268.8 293.387 268.8C293.387 268.8 329.823 228.376 344.878 236.59C359.933 244.803 383.502 290.308 425.788 249.382L436.883 249.376Z" fill="url(#paint12_linear)"/>
<path d="M437.029 250C437.029 250 422.438 252.475 418.975 244.645C415.513 236.814 420.326 229.634 423.028 230.458C425.731 231.281 424.058 236.547 424.6 239.65C425.143 242.753 432.09 245.635 433.95 243.059C435.809 240.482 435.772 235.13 429.4 232.794C423.028 230.458 424.452 229.157 428.292 228.038C432.131 226.919 435.933 228.733 438.464 232.931C440.995 237.128 449.44 220.515 450.479 216.085C451.517 211.655 468.552 233.069 437.029 250Z" fill="url(#paint13_linear)"/>
<defs>
<linearGradient id="paint0_linear" x1="349.512" y1="74.794" x2="201.915" y2="179.461" gradientUnits="userSpaceOnUse">
<stop stop-color="#444B8C"/>
<stop offset="1" stop-color="#26264F"/>
</linearGradient>
<linearGradient id="paint1_linear" x1="239.623" y1="363.189" x2="237.299" y2="412.214" gradientUnits="userSpaceOnUse">
<stop stop-color="#444B8C"/>
<stop offset="1" stop-color="#3E4177"/>
</linearGradient>
<linearGradient id="paint2_linear" x1="247.925" y1="71.1705" x2="250.003" y2="706.265" gradientUnits="userSpaceOnUse">
<stop stop-color="#FFC444"/>
<stop offset="1" stop-color="#F36F56"/>
</linearGradient>
<linearGradient id="paint3_linear" x1="253.584" y1="155.428" x2="254.813" y2="217.752" gradientUnits="userSpaceOnUse">
<stop stop-color="#311944"/>
<stop offset="1" stop-color="#A03976"/>
</linearGradient>
<linearGradient id="paint4_linear" x1="291570" y1="254362" x2="401811" y2="254362" gradientUnits="userSpaceOnUse">
<stop stop-color="#444B8C"/>
<stop offset="1" stop-color="#3E4177"/>
</linearGradient>
<linearGradient id="paint5_linear" x1="286735" y1="252493" x2="395146" y2="252493" gradientUnits="userSpaceOnUse">
<stop stop-color="#444B8C"/>
<stop offset="1" stop-color="#3E4177"/>
</linearGradient>
<linearGradient id="paint6_linear" x1="59232.3" y1="37747.6" x2="58288.7" y2="34842.9" gradientUnits="userSpaceOnUse">
<stop stop-color="#AA80F9"/>
<stop offset="1" stop-color="#6165D7"/>
</linearGradient>
<linearGradient id="paint7_linear" x1="26600.2" y1="29771.5" x2="25109.6" y2="27059.8" gradientUnits="userSpaceOnUse">
<stop stop-color="#311944"/>
<stop offset="1" stop-color="#A03976"/>
</linearGradient>
<linearGradient id="paint8_linear" x1="273747" y1="246183" x2="266463" y2="277691" gradientUnits="userSpaceOnUse">
<stop stop-color="#444B8C"/>
<stop offset="1" stop-color="#3E4177"/>
</linearGradient>
<linearGradient id="paint9_linear" x1="67703.8" y1="61079.9" x2="64015.8" y2="73352.8" gradientUnits="userSpaceOnUse">
<stop stop-color="#311944"/>
<stop offset="1" stop-color="#A03976"/>
</linearGradient>
<linearGradient id="paint10_linear" x1="196250" y1="100692" x2="196680" y2="335190" gradientUnits="userSpaceOnUse">
<stop stop-color="#FFC444"/>
<stop offset="1" stop-color="#F36F56"/>
</linearGradient>
<linearGradient id="paint11_linear" x1="40373.2" y1="83108.7" x2="39968" y2="75161.1" gradientUnits="userSpaceOnUse">
<stop stop-color="#311944"/>
<stop offset="1" stop-color="#A03976"/>
</linearGradient>
<linearGradient id="paint12_linear" x1="340293" y1="100426" x2="340723" y2="334922" gradientUnits="userSpaceOnUse">
<stop stop-color="#FFC444"/>
<stop offset="1" stop-color="#F36F56"/>
</linearGradient>
<linearGradient id="paint13_linear" x1="-99953.2" y1="82830.8" x2="-99548" y2="74882.5" gradientUnits="userSpaceOnUse">
<stop stop-color="#311944"/>
<stop offset="1" stop-color="#A03976"/>
</linearGradient>
</defs>
</svg>
